<?xml version="1.0" encoding="utf-8"?>

<!DOCTYPE svg PUBLIC "-//W3C//DTD SVG 1.1//EN" "http://www.w3.org/Graphics/SVG/1.1/DTD/svg11.dtd">
<svg version="1.1" id="Layer_1" xmlns="http://www.w3.org/2000/svg" xmlns:xlink="http://www.w3.org/1999/xlink" x="0px" y="0px"
	 viewBox="0 0 1797.081 1648.071" enable-background="new 0 0 1797.081 1648.071" xml:space="preserve">
<path d="M364.211,134.748c20.194-39.306,44.04-76.926,72.602-110.713c-136.043,265.749-65.2,476.886,160.354,623.809
	c36.582,24.179,150.39,76.798,181.022,163.99c31.074-184.706,109.25-226.901,13.119-247.139c27.305-10.094,44.731-5.05,61.154,6.944
	c-3.319-21.572-26.051-29.935-47.528-33.476c27.764-10.904,46.901-5.205,64.43,9.417c-5.294-19.816-26.984-27.965-47.233-30.888
	c27.608-11.479,52.139-6.538,72.357,18.523c41.395,12.782,71.542-18.381,106.881,7.37c12.971-6.174,16.885-21.471,18.343-34.541
	c6.944,14.036,6.879,31.56-2.489,44.515c15.575-3.832,20.521-21.373,22.077-35.327c7.501,14.773,6.551,33.623-4.324,46.513
	c14.543-5.012,18.621-21.602,20.472-35.13c8.076,19.592,6.656,37.449-9.614,51.459c29.272,0.435,65.106,11.761,72.602,33.967
	c1.916,5.749,0.835,11.874-0.426,17.639c-14.952-28.099-54.908-22.635-85.835-14.904c14.543,2.604,30.774,7.19,38.717,20.882
	c-14.641-6.256-31.773-4.913-45.317,3.374c19.777,19.571,38.895,24.37,62.104,9.024c-21.743,39.301-62.122,12.799-95.858,7.632
	c-4.416,35.156,17.884,67.722,38.913,128.827c59.26-99.805,153.197-106.402,264.434-213.794
	c163.077-156.472,170.018-346.606,65.363-547.899c39.564,43.858,94.308,134.531,116.544,229.5
	c30.132,126.654,0.692,234.047-68.115,332.336c162.798-159.651,127.003-346.692,127.566-378.062
	c41.949,165.09-1.03,335.781-164.678,451.827c118.403-43.399,197.968-141.424,247.041-257.948
	c-18.037,97.961-106.049,277.125-284.546,329.764c13.807-0.884,27.203-4.848,40.6-8.123
	c99.228-26.936,161.903-87.625,215.94-148.267c-53.131,79.554-137.587,151.695-230.712,173.669
	c86.868,20.021,254.81,51.152,346.584,40.944c-136.373,59.063-280.57,20.954-294.929,20.21
	c40.382,6.899,181.993,53.781,359.048,28.022c-110.423,34.733-240.452,29.503-352.824-0.18
	c61.503,37.838,145.265,100.402,175.536,166.02c-37.865-42.107-83.854-77.385-135.722-100.477
	c58.992,58.542,120.667,136.281,153.033,211.681c-104.605-113.488-121.118-64.344-234.102-170.672
	c14.052,39.274,23.535,80.136,29.398,121.408c-24.108-45.628-54.669-87.817-89.93-125.469
	c14.936,40.502,24.747,82.789,30.921,125.486c-24.157-45.612-54.685-87.817-89.946-125.469
	c14.822,40.518,24.861,82.756,30.806,125.486c-23.993-45.726-54.652-87.883-89.93-125.535
	c15.002,40.453,24.812,82.756,30.938,125.42c-24.19-45.596-54.685-87.833-90.012-125.453
	c14.969,40.256,24.714,82.347,30.872,124.814c-24.583-45.153-54.652-87.44-89.946-124.88
	c15.084,40.584,24.959,83.018,31.003,125.846c-20.03-38.864-45.645-74.649-73.814-108.011
	c-2.932,55.602-14.478,110.385-28.874,164.039c25.359,11.448,44.76,39.226,65.265,42.058c11.841,0.884,24.648-4.438,30.708-15.035
	c5.077-8.189,5.519-18.065,5.929-27.4c13.623,27.708,13.014,52.47-7.321,76.533c22.094-8.729,35.376-30.364,43.794-51.491
	c3.177,22.781-4.193,46.676-19.67,63.693c19.506-0.393,38.766-9.777,49.854-26.041c-4.406,19.817-21.635,32.886-37.423,43.843
	c13.921,6.011,27.711,12.316,41.518,18.605c2.094-21.764,17.076-65.682,38.487-64.168c14.724-12.922,33.623-22.061,53.522-21.733
	c-15.903,5.012-31.593,13.528-40.895,27.859c12.088,14.774-1.718,36.737-21.488,29.627c-4.799,9.925-7.779,20.669-8.746,31.642
	c15.591-24.124,38.356-43.516,65.019-54.358c8.254-4.684,18.736-4.307,26.581,1.097c24.845-4.635,51.508-1.343,73.388,11.759
	c-21.013-4.635-44.089-6.436-63.889,3.57c3.651,25.135-27.531,38.811-43.368,18.048c-36.375,22.536-56.994,67.312-50.673,109.616
	c22.497-1.45,35.118,24.169,19.407,41.141c9.909,10.744,24.386,16.329,38.897,16.279c-17.671,6.207-38.733,3.357-52.818-9.401
	c-8.271,0.491-16.902-2.588-21.848-9.434c-14.98-20.405-15.568-77.635-15.1-103.048c-16.328-7.55-32.805-14.74-49.149-22.208
	c2.457,19.014,4.34,40.862-7.73,57.207c5.028-19.08-0.934-39.978-13.839-54.603c-2.08,22.961-15.215,44.416-34.278,57.273
	c10.252-20.39,17.671-44.842,9.335-67.181c-4.948,31.692-23.946,50.028-52.294,56.077c6.78-5.863,13.299-12.578,16.263-21.225
	c4.455-12.038-0.016-26.122-9.286-34.606c-12.72-10.339-33.915-9.708-61.891-16.001c-1.883,5.355-3.799,10.727-5.667,16.099
	c33.76,49.932,83.937,126.475,63.66,183.61c-8.565-27.564-27.76-50.951-51.328-67.198c27.151,35.463,30.682,96.279,29.627,114.644
	c-9.04-27.826-23.436-54.914-45.972-74.142c-11.762,56.924,12.721,116.961,50.148,157.209
	c-41.263-19.031-60.21-59.892-73.896-96.415c-6.027,63.448,15.56,118.817,50.525,159.486
	c-44.154-25.696-78.875-69.032-90.094-119.295c-1.228-5.405-1.851-10.908-3.046-16.279c-7.108,56.748-44.039,107.224-93.074,135.574
	c36.959-43.063,56.136-98.165,50.509-159.387c-14.144,39.202-34.538,78.012-73.88,96.317
	c37.772-40.683,61.853-100.489,50.148-157.193c-22.618,19.211-36.866,46.381-46.087,74.174
	c-0.223-38.322,6.802-84.191,29.742-114.709c-23.633,16.279-42.762,39.765-51.409,67.345
	c-19.838-63.456,33.381-138.536,70.801-194.272c-1.114-2.948-2.195-5.896-3.259-8.811c-19.981,7.861-42.14,6.731-62.252,14.036
	c-16.4,5.614-34.518,33.562-2.129,61.039c-28.371-6.057-47.178-24.276-52.261-55.881c-8.484,22.224-0.819,46.627,9.253,66.985
	c-19.014-12.906-32.166-34.328-34.229-57.273c-12.922,14.625-18.851,35.523-13.839,54.603c-12.07-16.361-10.203-38.193-7.73-57.207
	c-16.361,7.468-32.837,14.658-49.149,22.208c1.407,83.464-9.43,113.689-36.948,112.482c-14.085,12.775-35.114,15.575-52.769,9.433
	c14.478-0.016,28.956-5.568,38.848-16.312c-13.823-14.168-6.62-41.678,19.424-41.173c6.273-42.287-14.314-87.064-50.689-109.583
	c-15.48,20.465-47,7.54-43.368-18.048c-19.801-9.99-42.893-8.238-63.873-3.554c21.848-13.151,48.527-16.394,73.372-11.776
	c7.828-5.388,18.277-5.798,26.532-1.114c26.696,10.826,49.461,30.266,65.085,54.39c-1.065-10.973-3.914-21.799-8.828-31.674
	c-17.821,7.231-34.213-13.271-21.422-29.611c-9.352-14.363-25.091-22.962-41.092-27.875c19.948-0.344,38.946,8.779,53.719,21.75
	c5.159,0.049,10.564,1.408,14.199,5.339c13.724,16.607,22.274,37.374,24.288,58.829c13.79-6.289,27.596-12.594,41.517-18.605
	c-15.804-10.957-33.034-24.042-37.439-43.859c11.071,16.279,30.364,25.647,49.87,26.057c-15.477-17.033-22.863-40.944-19.653-63.742
	c8.353,21.16,21.668,42.795,43.761,51.54c-20.964-24.772-20.43-49.485-7.288-76.582c0.311,10.171,1.064,21.078,7.304,29.594
	c8.631,12.054,26.794,16.869,39.88,9.401c22.65-12.07,38.52-35.982,64.659-41.485c-15.117-56.372-26.892-114.103-28.595-172.588
	c-32.608,36.276-61.564,76.123-84.034,119.491c6.027-42.828,15.903-85.279,30.987-125.862
	c-35.277,37.767-66.1,79.939-90.028,125.781c6.011-42.795,15.935-85.18,30.954-125.731c-35.245,37.701-66.035,79.825-89.913,125.633
	c5.88-42.762,15.87-85.098,30.872-125.617c-35.359,37.652-65.904,79.939-90.077,125.6c6.191-42.697,16.017-85,30.921-125.518
	c-35.261,37.652-65.805,79.857-89.946,125.469c6.174-42.68,16.001-84.984,30.937-125.502
	c-35.245,37.652-65.838,79.825-89.913,125.486c5.781-41.223,15.379-81.97,29.234-121.244
	c-110.523,102.57-133.04,60.885-234.004,170.557c33.094-76.278,93.931-153.217,153.049-211.714
	c-51.868,23.076-97.857,58.354-135.722,100.477c30.557-65.746,113.715-128.101,175.552-166.02
	c-114.157,29.948-245.247,34.5-352.808,0.18c14.623,0.894,109.773,28.22,320.511-19.195c12.938-2.604,25.516-6.748,38.537-8.926
	c-12.342,0.676-158.212,38.99-294.929-20.128c101.675,10.862,302.526-29.739,346.535-40.944
	c-93.775-22.331-178.454-94.983-230.647-173.62c23.439,26.197,100.18,121.794,228.534,151.412c9.27,1.883,18.458,4.668,27.989,4.93
	c-136.457-40.263-230.356-155.834-274.752-292.292c-3.669-12.382-8.025-24.698-9.81-37.521
	c49.544,118.615,127.5,212.03,247.041,257.997C266.048,549.52,217.645,376.378,260.557,208.694
	c0.46,26.428-36.566,217.108,127.533,377.931C294.237,449.49,279.553,301.971,364.211,134.748 M951.694,582.285
	c0.66,9.276,36.38,21.2,60.958,2.981C984.035,573.186,955.199,575.483,951.694,582.285z"/>
</svg>
