<svg xmlns="http://www.w3.org/2000/svg" viewBox="0 0 1440 320">
    <path fill="#6c63ff" fill-opacity="1" d="M0,160L34.3,133.3C68.6,107,137,53,206,69.3C274.3,85,343,171,411,208C480,245,549,235,617,213.3C685.7,192,754,160,823,165.3C891.4,171,960,213,1029,213.3C1097.1,213,1166,171,1234,133.3C1302.9,96,1371,64,1406,48L1440,32L1440,320L1405.7,320C1371.4,320,1303,320,1234,320C1165.7,320,1097,320,1029,320C960,320,891,320,823,320C754.3,320,686,320,617,320C548.6,320,480,320,411,320C342.9,320,274,320,206,320C137.1,320,69,320,34,320L0,320Z"></path>
</svg>