<svg xmlns="http://www.w3.org/2000/svg" viewBox="0 0 1440 320">
    <path fill="#6c63ff" fill-opacity="1" d="M0,288L34.3,256C68.6,224,137,160,206,122.7C274.3,85,343,75,411,101.3C480,128,549,192,617,192C685.7,192,754,128,823,101.3C891.4,75,960,85,1029,106.7C1097.1,128,1166,160,1234,186.7C1302.9,213,1371,235,1406,245.3L1440,256L1440,0L1405.7,0C1371.4,0,1303,0,1234,0C1165.7,0,1097,0,1029,0C960,0,891,0,823,0C754.3,0,686,0,617,0C548.6,0,480,0,411,0C342.9,0,274,0,206,0C137.1,0,69,0,34,0L0,0Z"></path>
</svg>