
<svg xmlns="http://www.w3.org/2000/svg" viewBox="0 0 1440 320">
    <path fill="#6c63ff" fill-opacity="1" d="M0,456L4.3,486.4C0.1,222,134,171,206,138.5C274.3,107,343,85,411,90.6C480,96,549,128,617,165.3C685.7,203,754,245,823,256C891.4,267,960,245,1029,229.3C1097.1,213,1166,203,1234,176C1302.9,149,1371,107,1406,85.3L1440,64L1440,320L1405.7,320C1371.4,320,1303,320,1234,320C1165.7,320,1097,320,1029,320C960,320,891,320,823,320C754.3,320,686,320,617,320C548.6,320,480,320,411,320C342.9,320,274,320,206,320C137.1,320,69,320,34,320L0,320Z"></path>
</svg>